<?xml version="1.0" encoding="UTF-8" standalone="no"?>
<!DOCTYPE svg PUBLIC "-//W3C//DTD SVG 1.1//EN"
 "http://www.w3.org/Graphics/SVG/1.1/DTD/svg11.dtd">
<!-- Generated by graphviz version 2.38.0 (20140413.2041)
 -->
<!-- Title: G Pages: 1 -->
<svg width="644pt" height="321pt"
 viewBox="0.00 0.00 644.15 321.00" xmlns="http://www.w3.org/2000/svg" xmlns:xlink="http://www.w3.org/1999/xlink">
<g id="graph0" class="graph" transform="scale(1 1) rotate(0) translate(4 317)">
<title>G</title>
<polygon fill="white" stroke="none" points="-4,4 -4,-317 640.152,-317 640.152,4 -4,4"/>
<g id="clust1" class="cluster"><title>cluster_0</title>
<polygon fill="none" stroke="black" points="83,-8 83,-305 141,-305 141,-8 83,-8"/>
<text text-anchor="middle" x="112" y="-289.8" font-family="Times,serif" font-size="14.00">入力層</text>
</g>
<g id="clust2" class="cluster"><title>cluster_1</title>
<polygon fill="none" stroke="black" points="190.538,-62 190.538,-253 242.538,-253 242.538,-62 190.538,-62"/>
<text text-anchor="middle" x="216.538" y="-237.8" font-family="Times,serif" font-size="14.00">第1層</text>
</g>
<g id="clust3" class="cluster"><title>cluster_2</title>
<polygon fill="none" stroke="black" points="292.076,-62 292.076,-253 344.076,-253 344.076,-62 292.076,-62"/>
<text text-anchor="middle" x="318.076" y="-237.8" font-family="Times,serif" font-size="14.00">第2層</text>
</g>
<g id="clust4" class="cluster"><title>cluster_3</title>
<polygon fill="none" stroke="black" points="393.614,-62 393.614,-253 445.614,-253 445.614,-62 393.614,-62"/>
<text text-anchor="middle" x="419.614" y="-237.8" font-family="Times,serif" font-size="14.00">第3層</text>
</g>
<g id="clust5" class="cluster"><title>cluster_4</title>
<polygon fill="none" stroke="black" points="495.152,-62 495.152,-251 553.152,-251 553.152,-62 495.152,-62"/>
<text text-anchor="middle" x="524.152" y="-235.8" font-family="Times,serif" font-size="14.00">出力層</text>
</g>
<!-- x1 -->
<g id="node1" class="node"><title>x1</title>
<ellipse fill="none" stroke="black" cx="112" cy="-250" rx="18" ry="18"/>
</g>
<!-- x2 -->
<g id="node2" class="node"><title>x2</title>
<ellipse fill="none" stroke="black" cx="112" cy="-196" rx="18" ry="18"/>
</g>
<!-- x3 -->
<g id="node3" class="node"><title>x3</title>
<ellipse fill="none" stroke="black" cx="112" cy="-142" rx="18" ry="18"/>
</g>
<!-- u1_2 -->
<g id="node7" class="node"><title>u1_2</title>
<ellipse fill="none" stroke="black" cx="216.538" cy="-142" rx="18" ry="18"/>
</g>
<!-- x3&#45;&gt;u1_2 -->
<g id="edge2" class="edge"><title>x3&#45;&gt;u1_2</title>
<path fill="none" stroke="black" d="M140.916,-142C155.654,-142 173.666,-142 188.301,-142"/>
<polygon fill="black" stroke="black" points="180.538,-145.5 190.538,-142 180.538,-138.5 180.538,-145.5"/>
<text text-anchor="middle" x="165.769" y="-144.8" font-family="Times,serif" font-size="14.00">W(1)</text>
</g>
<!-- x4 -->
<g id="node4" class="node"><title>x4</title>
<ellipse fill="none" stroke="black" cx="112" cy="-88" rx="18" ry="18"/>
</g>
<!-- x5 -->
<g id="node5" class="node"><title>x5</title>
<ellipse fill="none" stroke="black" cx="112" cy="-34" rx="18" ry="18"/>
</g>
<!-- u1_1 -->
<g id="node6" class="node"><title>u1_1</title>
<ellipse fill="none" stroke="black" cx="216.538" cy="-196" rx="18" ry="18"/>
</g>
<!-- u2_2 -->
<g id="node10" class="node"><title>u2_2</title>
<ellipse fill="none" stroke="black" cx="318.076" cy="-142" rx="18" ry="18"/>
</g>
<!-- u1_2&#45;&gt;u2_2 -->
<g id="edge3" class="edge"><title>u1_2&#45;&gt;u2_2</title>
<path fill="none" stroke="black" d="M242.442,-142C256.832,-142 274.955,-142 289.739,-142"/>
<polygon fill="black" stroke="black" points="282.076,-145.5 292.076,-142 282.076,-138.5 282.076,-145.5"/>
<text text-anchor="middle" x="267.307" y="-144.8" font-family="Times,serif" font-size="14.00">W(2)</text>
</g>
<!-- u1_3 -->
<g id="node8" class="node"><title>u1_3</title>
<ellipse fill="none" stroke="black" cx="216.538" cy="-88" rx="18" ry="18"/>
</g>
<!-- u2_1 -->
<g id="node9" class="node"><title>u2_1</title>
<ellipse fill="none" stroke="black" cx="318.076" cy="-196" rx="18" ry="18"/>
</g>
<!-- u3_2 -->
<g id="node13" class="node"><title>u3_2</title>
<ellipse fill="none" stroke="black" cx="419.614" cy="-142" rx="18" ry="18"/>
</g>
<!-- u2_2&#45;&gt;u3_2 -->
<g id="edge4" class="edge"><title>u2_2&#45;&gt;u3_2</title>
<path fill="none" stroke="black" d="M343.98,-142C358.37,-142 376.493,-142 391.277,-142"/>
<polygon fill="black" stroke="black" points="383.614,-145.5 393.614,-142 383.614,-138.5 383.614,-145.5"/>
<text text-anchor="middle" x="368.845" y="-144.8" font-family="Times,serif" font-size="14.00">W(3)</text>
</g>
<!-- u2_3 -->
<g id="node11" class="node"><title>u2_3</title>
<ellipse fill="none" stroke="black" cx="318.076" cy="-88" rx="18" ry="18"/>
</g>
<!-- u3_1 -->
<g id="node12" class="node"><title>u3_1</title>
<ellipse fill="none" stroke="black" cx="419.614" cy="-196" rx="18" ry="18"/>
</g>
<!-- y2 -->
<g id="node16" class="node"><title>y2</title>
<ellipse fill="none" stroke="black" cx="524.152" cy="-142" rx="18" ry="18"/>
</g>
<!-- u3_2&#45;&gt;y2 -->
<g id="edge5" class="edge"><title>u3_2&#45;&gt;y2</title>
<path fill="none" stroke="black" d="M445.087,-142C457.077,-142 471.788,-142 485.194,-142"/>
<polygon fill="black" stroke="black" points="485.484,-145.5 495.484,-142 485.484,-138.5 485.484,-145.5"/>
<text text-anchor="middle" x="470.383" y="-144.8" font-family="Times,serif" font-size="14.00">W(4)</text>
</g>
<!-- u3_3 -->
<g id="node14" class="node"><title>u3_3</title>
<ellipse fill="none" stroke="black" cx="419.614" cy="-88" rx="18" ry="18"/>
</g>
<!-- y1 -->
<g id="node15" class="node"><title>y1</title>
<ellipse fill="none" stroke="black" cx="524.152" cy="-196" rx="18" ry="18"/>
</g>
<!-- o -->
<g id="node19" class="node"><title>o</title>
<text text-anchor="middle" x="609.152" y="-137.8" font-family="Times,serif" font-size="14.00">output</text>
</g>
<!-- y2&#45;&gt;o -->
<g id="edge6" class="edge"><title>y2&#45;&gt;o</title>
<path fill="none" stroke="black" d="M552.818,-142C558.987,-142 565.616,-142 572.068,-142"/>
<polygon fill="black" stroke="black" points="572.141,-145.5 582.141,-142 572.141,-138.5 572.141,-145.5"/>
</g>
<!-- y3 -->
<g id="node17" class="node"><title>y3</title>
<ellipse fill="none" stroke="black" cx="524.152" cy="-88" rx="18" ry="18"/>
</g>
<!-- i -->
<g id="node18" class="node"><title>i</title>
<text text-anchor="middle" x="27" y="-137.8" font-family="Times,serif" font-size="14.00">input</text>
</g>
<!-- i&#45;&gt;x3 -->
<g id="edge1" class="edge"><title>i&#45;&gt;x3</title>
<path fill="none" stroke="black" d="M54.2617,-142C60.1805,-142 66.5796,-142 72.8744,-142"/>
<polygon fill="black" stroke="black" points="73.2666,-145.5 83.2666,-142 73.2666,-138.5 73.2666,-145.5"/>
</g>
</g>
</svg>
