<?xml version="1.0" encoding="UTF-8" standalone="no"?>
<!DOCTYPE svg PUBLIC "-//W3C//DTD SVG 1.1//EN"
 "http://www.w3.org/Graphics/SVG/1.1/DTD/svg11.dtd">
<!-- Generated by graphviz version 2.38.0 (20140413.2041)
 -->
<!-- Title: G Pages: 1 -->
<svg width="720pt" height="321pt"
 viewBox="0.00 0.00 720.19 321.00" xmlns="http://www.w3.org/2000/svg" xmlns:xlink="http://www.w3.org/1999/xlink">
<g id="graph0" class="graph" transform="scale(1 1) rotate(0) translate(4 317)">
<title>G</title>
<polygon fill="white" stroke="none" points="-4,4 -4,-317 716.188,-317 716.188,4 -4,4"/>
<g id="clust1" class="cluster"><title>cluster_0</title>
<polygon fill="none" stroke="black" points="83,-8 83,-305 141,-305 141,-8 83,-8"/>
<text text-anchor="middle" x="112" y="-289.8" font-family="Times,serif" font-size="14.00">入力層</text>
</g>
<g id="clust2" class="cluster"><title>cluster_1</title>
<polygon fill="none" stroke="black" points="190.538,-62 190.538,-253 242.538,-253 242.538,-62 190.538,-62"/>
<text text-anchor="middle" x="216.538" y="-237.8" font-family="Times,serif" font-size="14.00">第1層</text>
</g>
<g id="clust3" class="cluster"><title>cluster_2</title>
<polygon fill="none" stroke="black" points="354.538,-62 354.538,-251 412.538,-251 412.538,-62 354.538,-62"/>
<text text-anchor="middle" x="383.538" y="-235.8" font-family="Times,serif" font-size="14.00">入力層</text>
</g>
<g id="clust4" class="cluster"><title>cluster_3</title>
<polygon fill="none" stroke="black" points="462.076,-62 462.076,-253 514.076,-253 514.076,-62 462.076,-62"/>
<text text-anchor="middle" x="488.076" y="-237.8" font-family="Times,serif" font-size="14.00">第2層</text>
</g>
<g id="clust5" class="cluster"><title>cluster_4</title>
<polygon fill="none" stroke="black" points="571.188,-62 571.188,-251 629.188,-251 629.188,-62 571.188,-62"/>
<text text-anchor="middle" x="600.188" y="-235.8" font-family="Times,serif" font-size="14.00">出力層</text>
</g>
<!-- x1 -->
<g id="node1" class="node"><title>x1</title>
<ellipse fill="none" stroke="black" cx="112" cy="-250" rx="18" ry="18"/>
</g>
<!-- x2 -->
<g id="node2" class="node"><title>x2</title>
<ellipse fill="none" stroke="black" cx="112" cy="-196" rx="18" ry="18"/>
</g>
<!-- x3 -->
<g id="node3" class="node"><title>x3</title>
<ellipse fill="none" stroke="black" cx="112" cy="-142" rx="18" ry="18"/>
</g>
<!-- u1_2 -->
<g id="node7" class="node"><title>u1_2</title>
<ellipse fill="none" stroke="black" cx="216.538" cy="-142" rx="18" ry="18"/>
</g>
<!-- x3&#45;&gt;u1_2 -->
<g id="edge2" class="edge"><title>x3&#45;&gt;u1_2</title>
<path fill="none" stroke="black" d="M140.916,-142C155.654,-142 173.666,-142 188.301,-142"/>
<polygon fill="black" stroke="black" points="180.538,-145.5 190.538,-142 180.538,-138.5 180.538,-145.5"/>
<text text-anchor="middle" x="165.769" y="-144.8" font-family="Times,serif" font-size="14.00">W(1)</text>
</g>
<!-- x4 -->
<g id="node4" class="node"><title>x4</title>
<ellipse fill="none" stroke="black" cx="112" cy="-88" rx="18" ry="18"/>
</g>
<!-- x5 -->
<g id="node5" class="node"><title>x5</title>
<ellipse fill="none" stroke="black" cx="112" cy="-34" rx="18" ry="18"/>
</g>
<!-- u1_1 -->
<g id="node6" class="node"><title>u1_1</title>
<ellipse fill="none" stroke="black" cx="216.538" cy="-196" rx="18" ry="18"/>
</g>
<!-- o1 -->
<g id="node19" class="node"><title>o1</title>
<text text-anchor="middle" x="298.538" y="-137.8" font-family="Times,serif" font-size="14.00">Zn(1)</text>
</g>
<!-- u1_2&#45;&gt;o1 -->
<g id="edge3" class="edge"><title>u1_2&#45;&gt;o1</title>
<path fill="none" stroke="black" d="M241.79,-142C247.93,-142 254.658,-142 261.251,-142"/>
<polygon fill="black" stroke="black" points="261.392,-145.5 271.392,-142 261.392,-138.5 261.392,-145.5"/>
</g>
<!-- u1_3 -->
<g id="node8" class="node"><title>u1_3</title>
<ellipse fill="none" stroke="black" cx="216.538" cy="-88" rx="18" ry="18"/>
</g>
<!-- u2_1 -->
<g id="node9" class="node"><title>u2_1</title>
<ellipse fill="none" stroke="black" cx="383.538" cy="-196" rx="18" ry="18"/>
</g>
<!-- u2_2 -->
<g id="node10" class="node"><title>u2_2</title>
<ellipse fill="none" stroke="black" cx="383.538" cy="-142" rx="18" ry="18"/>
</g>
<!-- u3_2 -->
<g id="node13" class="node"><title>u3_2</title>
<ellipse fill="none" stroke="black" cx="488.076" cy="-142" rx="18" ry="18"/>
</g>
<!-- u2_2&#45;&gt;u3_2 -->
<g id="edge5" class="edge"><title>u2_2&#45;&gt;u3_2</title>
<path fill="none" stroke="black" d="M412.454,-142C427.192,-142 445.204,-142 459.839,-142"/>
<polygon fill="black" stroke="black" points="452.076,-145.5 462.076,-142 452.076,-138.5 452.076,-145.5"/>
<text text-anchor="middle" x="437.307" y="-144.8" font-family="Times,serif" font-size="14.00">W(2)</text>
</g>
<!-- u2_3 -->
<g id="node11" class="node"><title>u2_3</title>
<ellipse fill="none" stroke="black" cx="383.538" cy="-88" rx="18" ry="18"/>
</g>
<!-- u3_1 -->
<g id="node12" class="node"><title>u3_1</title>
<ellipse fill="none" stroke="black" cx="488.076" cy="-196" rx="18" ry="18"/>
</g>
<!-- y2 -->
<g id="node16" class="node"><title>y2</title>
<ellipse fill="none" stroke="black" cx="600.188" cy="-142" rx="18" ry="18"/>
</g>
<!-- u3_2&#45;&gt;y2 -->
<g id="edge6" class="edge"><title>u3_2&#45;&gt;y2</title>
<path fill="none" stroke="black" d="M514.062,-142C528.091,-142 545.876,-142 561.558,-142"/>
<polygon fill="black" stroke="black" points="561.607,-145.5 571.607,-142 561.607,-138.5 561.607,-145.5"/>
<text text-anchor="middle" x="542.632" y="-144.8" font-family="Times,serif" font-size="14.00">W~(2)</text>
</g>
<!-- u3_3 -->
<g id="node14" class="node"><title>u3_3</title>
<ellipse fill="none" stroke="black" cx="488.076" cy="-88" rx="18" ry="18"/>
</g>
<!-- y1 -->
<g id="node15" class="node"><title>y1</title>
<ellipse fill="none" stroke="black" cx="600.188" cy="-196" rx="18" ry="18"/>
</g>
<!-- o2 -->
<g id="node20" class="node"><title>o2</title>
<text text-anchor="middle" x="685.188" y="-137.8" font-family="Times,serif" font-size="14.00">Z&#39;n(1)</text>
</g>
<!-- y2&#45;&gt;o2 -->
<g id="edge7" class="edge"><title>y2&#45;&gt;o2</title>
<path fill="none" stroke="black" d="M628.854,-142C635.023,-142 641.652,-142 648.104,-142"/>
<polygon fill="black" stroke="black" points="648.178,-145.5 658.178,-142 648.178,-138.5 648.178,-145.5"/>
</g>
<!-- y3 -->
<g id="node17" class="node"><title>y3</title>
<ellipse fill="none" stroke="black" cx="600.188" cy="-88" rx="18" ry="18"/>
</g>
<!-- i -->
<g id="node18" class="node"><title>i</title>
<text text-anchor="middle" x="27" y="-137.8" font-family="Times,serif" font-size="14.00">Xn</text>
</g>
<!-- i&#45;&gt;x3 -->
<g id="edge1" class="edge"><title>i&#45;&gt;x3</title>
<path fill="none" stroke="black" d="M54.2617,-142C60.1805,-142 66.5796,-142 72.8744,-142"/>
<polygon fill="black" stroke="black" points="73.2666,-145.5 83.2666,-142 73.2666,-138.5 73.2666,-145.5"/>
</g>
<!-- o1&#45;&gt;u2_2 -->
<g id="edge4" class="edge"><title>o1&#45;&gt;u2_2</title>
<path fill="none" stroke="black" d="M325.8,-142C331.672,-142 338.016,-142 344.263,-142"/>
<polygon fill="black" stroke="black" points="344.582,-145.5 354.582,-142 344.582,-138.5 344.582,-145.5"/>
</g>
</g>
</svg>
