<?xml version="1.0" encoding="UTF-8" standalone="no"?>
<!DOCTYPE svg PUBLIC "-//W3C//DTD SVG 1.1//EN"
 "http://www.w3.org/Graphics/SVG/1.1/DTD/svg11.dtd">
<!-- Generated by graphviz version 2.38.0 (20140413.2041)
 -->
<!-- Title: G Pages: 1 -->
<svg width="449pt" height="321pt"
 viewBox="0.00 0.00 448.65 321.00" xmlns="http://www.w3.org/2000/svg" xmlns:xlink="http://www.w3.org/1999/xlink">
<g id="graph0" class="graph" transform="scale(1 1) rotate(0) translate(4 317)">
<title>G</title>
<polygon fill="white" stroke="none" points="-4,4 -4,-317 444.65,-317 444.65,4 -4,4"/>
<g id="clust1" class="cluster"><title>cluster_0</title>
<polygon fill="none" stroke="black" points="83,-8 83,-305 141,-305 141,-8 83,-8"/>
<text text-anchor="middle" x="112" y="-289.8" font-family="Times,serif" font-size="14.00">入力層</text>
</g>
<g id="clust2" class="cluster"><title>cluster_1</title>
<polygon fill="none" stroke="black" points="190.538,-62 190.538,-253 242.538,-253 242.538,-62 190.538,-62"/>
<text text-anchor="middle" x="216.538" y="-237.8" font-family="Times,serif" font-size="14.00">第1層</text>
</g>
<g id="clust3" class="cluster"><title>cluster_2</title>
<polygon fill="none" stroke="black" points="299.65,-8 299.65,-305 357.65,-305 357.65,-8 299.65,-8"/>
<text text-anchor="middle" x="328.65" y="-289.8" font-family="Times,serif" font-size="14.00">出力層</text>
</g>
<!-- x1 -->
<g id="node1" class="node"><title>x1</title>
<ellipse fill="none" stroke="black" cx="112" cy="-250" rx="18" ry="18"/>
</g>
<!-- x2 -->
<g id="node2" class="node"><title>x2</title>
<ellipse fill="none" stroke="black" cx="112" cy="-196" rx="18" ry="18"/>
</g>
<!-- x3 -->
<g id="node3" class="node"><title>x3</title>
<ellipse fill="none" stroke="black" cx="112" cy="-142" rx="18" ry="18"/>
</g>
<!-- u1_2 -->
<g id="node7" class="node"><title>u1_2</title>
<ellipse fill="none" stroke="black" cx="216.538" cy="-142" rx="18" ry="18"/>
</g>
<!-- x3&#45;&gt;u1_2 -->
<g id="edge2" class="edge"><title>x3&#45;&gt;u1_2</title>
<path fill="none" stroke="black" d="M140.916,-142C155.654,-142 173.666,-142 188.301,-142"/>
<polygon fill="black" stroke="black" points="180.538,-145.5 190.538,-142 180.538,-138.5 180.538,-145.5"/>
<text text-anchor="middle" x="165.769" y="-144.8" font-family="Times,serif" font-size="14.00">W(1)</text>
</g>
<!-- x4 -->
<g id="node4" class="node"><title>x4</title>
<ellipse fill="none" stroke="black" cx="112" cy="-88" rx="18" ry="18"/>
</g>
<!-- x5 -->
<g id="node5" class="node"><title>x5</title>
<ellipse fill="none" stroke="black" cx="112" cy="-34" rx="18" ry="18"/>
</g>
<!-- u1_1 -->
<g id="node6" class="node"><title>u1_1</title>
<ellipse fill="none" stroke="black" cx="216.538" cy="-196" rx="18" ry="18"/>
</g>
<!-- y3 -->
<g id="node11" class="node"><title>y3</title>
<ellipse fill="none" stroke="black" cx="328.65" cy="-142" rx="18" ry="18"/>
</g>
<!-- u1_2&#45;&gt;y3 -->
<g id="edge3" class="edge"><title>u1_2&#45;&gt;y3</title>
<path fill="none" stroke="black" d="M242.524,-142C256.552,-142 274.338,-142 290.02,-142"/>
<polygon fill="black" stroke="black" points="290.069,-145.5 300.069,-142 290.069,-138.5 290.069,-145.5"/>
<text text-anchor="middle" x="271.094" y="-144.8" font-family="Times,serif" font-size="14.00">W~(1)</text>
</g>
<!-- u1_3 -->
<g id="node8" class="node"><title>u1_3</title>
<ellipse fill="none" stroke="black" cx="216.538" cy="-88" rx="18" ry="18"/>
</g>
<!-- y1 -->
<g id="node9" class="node"><title>y1</title>
<ellipse fill="none" stroke="black" cx="328.65" cy="-250" rx="18" ry="18"/>
</g>
<!-- y2 -->
<g id="node10" class="node"><title>y2</title>
<ellipse fill="none" stroke="black" cx="328.65" cy="-196" rx="18" ry="18"/>
</g>
<!-- o -->
<g id="node15" class="node"><title>o</title>
<text text-anchor="middle" x="413.65" y="-137.8" font-family="Times,serif" font-size="14.00">X&#39;n</text>
</g>
<!-- y3&#45;&gt;o -->
<g id="edge4" class="edge"><title>y3&#45;&gt;o</title>
<path fill="none" stroke="black" d="M357.316,-142C363.485,-142 370.114,-142 376.566,-142"/>
<polygon fill="black" stroke="black" points="376.64,-145.5 386.64,-142 376.639,-138.5 376.64,-145.5"/>
</g>
<!-- y4 -->
<g id="node12" class="node"><title>y4</title>
<ellipse fill="none" stroke="black" cx="328.65" cy="-88" rx="18" ry="18"/>
</g>
<!-- y5 -->
<g id="node13" class="node"><title>y5</title>
<ellipse fill="none" stroke="black" cx="328.65" cy="-34" rx="18" ry="18"/>
</g>
<!-- i -->
<g id="node14" class="node"><title>i</title>
<text text-anchor="middle" x="27" y="-137.8" font-family="Times,serif" font-size="14.00">Xn</text>
</g>
<!-- i&#45;&gt;x3 -->
<g id="edge1" class="edge"><title>i&#45;&gt;x3</title>
<path fill="none" stroke="black" d="M54.2617,-142C60.1336,-142 66.4781,-142 72.7245,-142"/>
<polygon fill="black" stroke="black" points="73.0437,-145.5 83.0436,-142 73.0436,-138.5 73.0437,-145.5"/>
</g>
</g>
</svg>
