<?xml version="1.0" encoding="UTF-8" standalone="no"?>
<!DOCTYPE svg PUBLIC "-//W3C//DTD SVG 1.1//EN"
 "http://www.w3.org/Graphics/SVG/1.1/DTD/svg11.dtd">
<!-- Generated by graphviz version 2.38.0 (20140413.2041)
 -->
<!-- Title: G Pages: 1 -->
<svg width="992pt" height="321pt"
 viewBox="0.00 0.00 991.73 321.00" xmlns="http://www.w3.org/2000/svg" xmlns:xlink="http://www.w3.org/1999/xlink">
<g id="graph0" class="graph" transform="scale(1 1) rotate(0) translate(4 317)">
<title>G</title>
<polygon fill="white" stroke="none" points="-4,4 -4,-317 987.727,-317 987.727,4 -4,4"/>
<g id="clust1" class="cluster"><title>cluster_0</title>
<polygon fill="none" stroke="black" points="83,-8 83,-305 141,-305 141,-8 83,-8"/>
<text text-anchor="middle" x="112" y="-289.8" font-family="Times,serif" font-size="14.00">入力層</text>
</g>
<g id="clust2" class="cluster"><title>cluster_1</title>
<polygon fill="none" stroke="black" points="190.538,-62 190.538,-253 242.538,-253 242.538,-62 190.538,-62"/>
<text text-anchor="middle" x="216.538" y="-237.8" font-family="Times,serif" font-size="14.00">第1層</text>
</g>
<g id="clust3" class="cluster"><title>cluster_2</title>
<polygon fill="none" stroke="black" points="354.538,-62 354.538,-251 412.538,-251 412.538,-62 354.538,-62"/>
<text text-anchor="middle" x="383.538" y="-235.8" font-family="Times,serif" font-size="14.00">入力層</text>
</g>
<g id="clust4" class="cluster"><title>cluster_3</title>
<polygon fill="none" stroke="black" points="462.076,-62 462.076,-253 514.076,-253 514.076,-62 462.076,-62"/>
<text text-anchor="middle" x="488.076" y="-237.8" font-family="Times,serif" font-size="14.00">第2層</text>
</g>
<g id="clust5" class="cluster"><title>cluster_4</title>
<polygon fill="none" stroke="black" points="626.076,-62 626.076,-251 684.076,-251 684.076,-62 626.076,-62"/>
<text text-anchor="middle" x="655.076" y="-235.8" font-family="Times,serif" font-size="14.00">入力層</text>
</g>
<g id="clust6" class="cluster"><title>cluster_5</title>
<polygon fill="none" stroke="black" points="733.614,-62 733.614,-253 785.614,-253 785.614,-62 733.614,-62"/>
<text text-anchor="middle" x="759.614" y="-237.8" font-family="Times,serif" font-size="14.00">第3層</text>
</g>
<g id="clust7" class="cluster"><title>cluster_6</title>
<polygon fill="none" stroke="black" points="842.727,-62 842.727,-251 900.727,-251 900.727,-62 842.727,-62"/>
<text text-anchor="middle" x="871.727" y="-235.8" font-family="Times,serif" font-size="14.00">出力層</text>
</g>
<!-- x1 -->
<g id="node1" class="node"><title>x1</title>
<ellipse fill="none" stroke="black" cx="112" cy="-250" rx="18" ry="18"/>
</g>
<!-- x2 -->
<g id="node2" class="node"><title>x2</title>
<ellipse fill="none" stroke="black" cx="112" cy="-196" rx="18" ry="18"/>
</g>
<!-- x3 -->
<g id="node3" class="node"><title>x3</title>
<ellipse fill="none" stroke="black" cx="112" cy="-142" rx="18" ry="18"/>
</g>
<!-- u1_2 -->
<g id="node7" class="node"><title>u1_2</title>
<ellipse fill="none" stroke="black" cx="216.538" cy="-142" rx="18" ry="18"/>
</g>
<!-- x3&#45;&gt;u1_2 -->
<g id="edge2" class="edge"><title>x3&#45;&gt;u1_2</title>
<path fill="none" stroke="black" d="M140.916,-142C155.654,-142 173.666,-142 188.301,-142"/>
<polygon fill="black" stroke="black" points="180.538,-145.5 190.538,-142 180.538,-138.5 180.538,-145.5"/>
<text text-anchor="middle" x="165.769" y="-144.8" font-family="Times,serif" font-size="14.00">W(1)</text>
</g>
<!-- x4 -->
<g id="node4" class="node"><title>x4</title>
<ellipse fill="none" stroke="black" cx="112" cy="-88" rx="18" ry="18"/>
</g>
<!-- x5 -->
<g id="node5" class="node"><title>x5</title>
<ellipse fill="none" stroke="black" cx="112" cy="-34" rx="18" ry="18"/>
</g>
<!-- u1_1 -->
<g id="node6" class="node"><title>u1_1</title>
<ellipse fill="none" stroke="black" cx="216.538" cy="-196" rx="18" ry="18"/>
</g>
<!-- o1 -->
<g id="node25" class="node"><title>o1</title>
<text text-anchor="middle" x="298.538" y="-137.8" font-family="Times,serif" font-size="14.00">Zn(1)</text>
</g>
<!-- u1_2&#45;&gt;o1 -->
<g id="edge3" class="edge"><title>u1_2&#45;&gt;o1</title>
<path fill="none" stroke="black" d="M242.393,-142C248.368,-142 254.873,-142 261.251,-142"/>
<polygon fill="black" stroke="black" points="261.392,-145.5 271.392,-142 261.392,-138.5 261.392,-145.5"/>
</g>
<!-- u1_3 -->
<g id="node8" class="node"><title>u1_3</title>
<ellipse fill="none" stroke="black" cx="216.538" cy="-88" rx="18" ry="18"/>
</g>
<!-- u2_1 -->
<g id="node9" class="node"><title>u2_1</title>
<ellipse fill="none" stroke="black" cx="383.538" cy="-196" rx="18" ry="18"/>
</g>
<!-- u2_2 -->
<g id="node10" class="node"><title>u2_2</title>
<ellipse fill="none" stroke="black" cx="383.538" cy="-142" rx="18" ry="18"/>
</g>
<!-- u3_2 -->
<g id="node13" class="node"><title>u3_2</title>
<ellipse fill="none" stroke="black" cx="488.076" cy="-142" rx="18" ry="18"/>
</g>
<!-- u2_2&#45;&gt;u3_2 -->
<g id="edge5" class="edge"><title>u2_2&#45;&gt;u3_2</title>
<path fill="none" stroke="black" d="M412.454,-142C427.192,-142 445.204,-142 459.839,-142"/>
<polygon fill="black" stroke="black" points="452.076,-145.5 462.076,-142 452.076,-138.5 452.076,-145.5"/>
<text text-anchor="middle" x="437.307" y="-144.8" font-family="Times,serif" font-size="14.00">W(2)</text>
</g>
<!-- u2_3 -->
<g id="node11" class="node"><title>u2_3</title>
<ellipse fill="none" stroke="black" cx="383.538" cy="-88" rx="18" ry="18"/>
</g>
<!-- u3_1 -->
<g id="node12" class="node"><title>u3_1</title>
<ellipse fill="none" stroke="black" cx="488.076" cy="-196" rx="18" ry="18"/>
</g>
<!-- o2 -->
<g id="node26" class="node"><title>o2</title>
<text text-anchor="middle" x="570.076" y="-137.8" font-family="Times,serif" font-size="14.00">Zn(2)</text>
</g>
<!-- u3_2&#45;&gt;o2 -->
<g id="edge6" class="edge"><title>u3_2&#45;&gt;o2</title>
<path fill="none" stroke="black" d="M513.328,-142C519.468,-142 526.196,-142 532.789,-142"/>
<polygon fill="black" stroke="black" points="532.93,-145.5 542.93,-142 532.93,-138.5 532.93,-145.5"/>
</g>
<!-- u3_3 -->
<g id="node14" class="node"><title>u3_3</title>
<ellipse fill="none" stroke="black" cx="488.076" cy="-88" rx="18" ry="18"/>
</g>
<!-- u4_1 -->
<g id="node15" class="node"><title>u4_1</title>
<ellipse fill="none" stroke="black" cx="655.076" cy="-196" rx="18" ry="18"/>
</g>
<!-- u4_2 -->
<g id="node16" class="node"><title>u4_2</title>
<ellipse fill="none" stroke="black" cx="655.076" cy="-142" rx="18" ry="18"/>
</g>
<!-- u5_2 -->
<g id="node19" class="node"><title>u5_2</title>
<ellipse fill="none" stroke="black" cx="759.614" cy="-142" rx="18" ry="18"/>
</g>
<!-- u4_2&#45;&gt;u5_2 -->
<g id="edge8" class="edge"><title>u4_2&#45;&gt;u5_2</title>
<path fill="none" stroke="black" d="M683.992,-142C698.73,-142 716.742,-142 731.377,-142"/>
<polygon fill="black" stroke="black" points="723.614,-145.5 733.614,-142 723.614,-138.5 723.614,-145.5"/>
<text text-anchor="middle" x="708.845" y="-144.8" font-family="Times,serif" font-size="14.00">W(3)</text>
</g>
<!-- u4_3 -->
<g id="node17" class="node"><title>u4_3</title>
<ellipse fill="none" stroke="black" cx="655.076" cy="-88" rx="18" ry="18"/>
</g>
<!-- u5_1 -->
<g id="node18" class="node"><title>u5_1</title>
<ellipse fill="none" stroke="black" cx="759.614" cy="-196" rx="18" ry="18"/>
</g>
<!-- y2 -->
<g id="node22" class="node"><title>y2</title>
<ellipse fill="none" stroke="black" cx="871.727" cy="-142" rx="18" ry="18"/>
</g>
<!-- u5_2&#45;&gt;y2 -->
<g id="edge9" class="edge"><title>u5_2&#45;&gt;y2</title>
<path fill="none" stroke="black" d="M785.6,-142C799.629,-142 817.414,-142 833.096,-142"/>
<polygon fill="black" stroke="black" points="833.145,-145.5 843.145,-142 833.145,-138.5 833.145,-145.5"/>
<text text-anchor="middle" x="814.17" y="-144.8" font-family="Times,serif" font-size="14.00">W~(3)</text>
</g>
<!-- u5_3 -->
<g id="node20" class="node"><title>u5_3</title>
<ellipse fill="none" stroke="black" cx="759.614" cy="-88" rx="18" ry="18"/>
</g>
<!-- y1 -->
<g id="node21" class="node"><title>y1</title>
<ellipse fill="none" stroke="black" cx="871.727" cy="-196" rx="18" ry="18"/>
</g>
<!-- o3 -->
<g id="node27" class="node"><title>o3</title>
<text text-anchor="middle" x="956.727" y="-137.8" font-family="Times,serif" font-size="14.00">Z&#39;n(2)</text>
</g>
<!-- y2&#45;&gt;o3 -->
<g id="edge10" class="edge"><title>y2&#45;&gt;o3</title>
<path fill="none" stroke="black" d="M900.393,-142C906.561,-142 913.19,-142 919.642,-142"/>
<polygon fill="black" stroke="black" points="919.716,-145.5 929.716,-142 919.716,-138.5 919.716,-145.5"/>
</g>
<!-- y3 -->
<g id="node23" class="node"><title>y3</title>
<ellipse fill="none" stroke="black" cx="871.727" cy="-88" rx="18" ry="18"/>
</g>
<!-- i -->
<g id="node24" class="node"><title>i</title>
<text text-anchor="middle" x="27" y="-137.8" font-family="Times,serif" font-size="14.00">Xn</text>
</g>
<!-- i&#45;&gt;x3 -->
<g id="edge1" class="edge"><title>i&#45;&gt;x3</title>
<path fill="none" stroke="black" d="M54.2617,-142C60.1336,-142 66.4781,-142 72.7245,-142"/>
<polygon fill="black" stroke="black" points="73.0437,-145.5 83.0436,-142 73.0436,-138.5 73.0437,-145.5"/>
</g>
<!-- o1&#45;&gt;u2_2 -->
<g id="edge4" class="edge"><title>o1&#45;&gt;u2_2</title>
<path fill="none" stroke="black" d="M325.8,-142C331.719,-142 338.118,-142 344.413,-142"/>
<polygon fill="black" stroke="black" points="344.805,-145.5 354.805,-142 344.805,-138.5 344.805,-145.5"/>
</g>
<!-- o2&#45;&gt;u4_2 -->
<g id="edge7" class="edge"><title>o2&#45;&gt;u4_2</title>
<path fill="none" stroke="black" d="M597.338,-142C603.21,-142 609.554,-142 615.801,-142"/>
<polygon fill="black" stroke="black" points="616.12,-145.5 626.12,-142 616.12,-138.5 616.12,-145.5"/>
</g>
</g>
</svg>
