<?xml version="1.0" encoding="UTF-8" standalone="no"?>
<!DOCTYPE svg PUBLIC "-//W3C//DTD SVG 1.1//EN"
 "http://www.w3.org/Graphics/SVG/1.1/DTD/svg11.dtd">
<!-- Generated by graphviz version 2.38.0 (20140413.2041)
 -->
<!-- Title: G Pages: 1 -->
<svg width="530pt" height="321pt"
 viewBox="0.00 0.00 529.61 321.00" xmlns="http://www.w3.org/2000/svg" xmlns:xlink="http://www.w3.org/1999/xlink">
<g id="graph0" class="graph" transform="scale(1 1) rotate(0) translate(4 317)">
<title>G</title>
<polygon fill="white" stroke="none" points="-4,4 -4,-317 525.614,-317 525.614,4 -4,4"/>
<g id="clust1" class="cluster"><title>cluster_0</title>
<polygon fill="none" stroke="black" points="5,-8 5,-305 63,-305 63,-8 5,-8"/>
<text text-anchor="middle" x="34" y="-289.8" font-family="Times,serif" font-size="14.00">入力層</text>
</g>
<g id="clust2" class="cluster"><title>cluster_1</title>
<polygon fill="none" stroke="black" points="112.538,-62 112.538,-253 164.538,-253 164.538,-62 112.538,-62"/>
<text text-anchor="middle" x="138.538" y="-237.8" font-family="Times,serif" font-size="14.00">第1層</text>
</g>
<g id="clust3" class="cluster"><title>cluster_1_d</title>
<polygon fill="none" stroke="black" points="185.538,-62 185.538,-253 237.538,-253 237.538,-62 185.538,-62"/>
<text text-anchor="middle" x="211.538" y="-237.8" font-family="Times,serif" font-size="14.00">第1層</text>
</g>
<g id="clust4" class="cluster"><title>cluster_2</title>
<polygon fill="none" stroke="black" points="287.076,-62 287.076,-253 339.076,-253 339.076,-62 287.076,-62"/>
<text text-anchor="middle" x="313.076" y="-237.8" font-family="Times,serif" font-size="14.00">第2層</text>
</g>
<g id="clust5" class="cluster"><title>cluster_2_d</title>
<polygon fill="none" stroke="black" points="360.076,-62 360.076,-253 412.076,-253 412.076,-62 360.076,-62"/>
<text text-anchor="middle" x="386.076" y="-237.8" font-family="Times,serif" font-size="14.00">第2層</text>
</g>
<g id="clust6" class="cluster"><title>cluster_3</title>
<polygon fill="none" stroke="black" points="461.614,-62 461.614,-253 513.614,-253 513.614,-62 461.614,-62"/>
<text text-anchor="middle" x="487.614" y="-237.8" font-family="Times,serif" font-size="14.00">第3層</text>
</g>
<!-- x1 -->
<g id="node1" class="node"><title>x1</title>
<ellipse fill="none" stroke="black" cx="34" cy="-250" rx="18" ry="18"/>
</g>
<!-- x2 -->
<g id="node2" class="node"><title>x2</title>
<ellipse fill="none" stroke="black" cx="34" cy="-196" rx="18" ry="18"/>
</g>
<!-- x3 -->
<g id="node3" class="node"><title>x3</title>
<ellipse fill="none" stroke="black" cx="34" cy="-142" rx="18" ry="18"/>
</g>
<!-- u1_2 -->
<g id="node7" class="node"><title>u1_2</title>
<ellipse fill="none" stroke="black" cx="138.538" cy="-142" rx="18" ry="18"/>
</g>
<!-- x3&#45;&gt;u1_2 -->
<g id="edge1" class="edge"><title>x3&#45;&gt;u1_2</title>
<path fill="none" stroke="black" d="M62.9159,-142C77.6537,-142 95.6657,-142 110.301,-142"/>
<polygon fill="black" stroke="black" points="102.538,-145.5 112.538,-142 102.538,-138.5 102.538,-145.5"/>
<text text-anchor="middle" x="87.769" y="-144.8" font-family="Times,serif" font-size="14.00">W(1)</text>
</g>
<!-- x4 -->
<g id="node4" class="node"><title>x4</title>
<ellipse fill="none" stroke="black" cx="34" cy="-88" rx="18" ry="18"/>
</g>
<!-- x5 -->
<g id="node5" class="node"><title>x5</title>
<ellipse fill="none" stroke="black" cx="34" cy="-34" rx="18" ry="18"/>
</g>
<!-- u1_1 -->
<g id="node6" class="node"><title>u1_1</title>
<ellipse fill="none" stroke="black" cx="138.538" cy="-196" rx="18" ry="18"/>
</g>
<!-- u1_2_d -->
<g id="node10" class="node"><title>u1_2_d</title>
<ellipse fill="none" stroke="black" cx="211.538" cy="-142" rx="18" ry="18"/>
</g>
<!-- u1_2&#45;&gt;u1_2_d -->
<!-- u1_3 -->
<g id="node8" class="node"><title>u1_3</title>
<ellipse fill="none" stroke="black" cx="138.538" cy="-88" rx="18" ry="18"/>
</g>
<!-- u1_1_d -->
<g id="node9" class="node"><title>u1_1_d</title>
<ellipse fill="none" stroke="black" cx="211.538" cy="-196" rx="18" ry="18"/>
</g>
<!-- u2_2 -->
<g id="node13" class="node"><title>u2_2</title>
<ellipse fill="none" stroke="black" cx="313.076" cy="-142" rx="18" ry="18"/>
</g>
<!-- u1_2_d&#45;&gt;u2_2 -->
<g id="edge2" class="edge"><title>u1_2_d&#45;&gt;u2_2</title>
<path fill="none" stroke="black" d="M237.442,-142C251.832,-142 269.955,-142 284.739,-142"/>
<polygon fill="black" stroke="black" points="277.076,-145.5 287.076,-142 277.076,-138.5 277.076,-145.5"/>
<text text-anchor="middle" x="262.307" y="-144.8" font-family="Times,serif" font-size="14.00">W(2)</text>
</g>
<!-- u1_3_d -->
<g id="node11" class="node"><title>u1_3_d</title>
<ellipse fill="none" stroke="black" cx="211.538" cy="-88" rx="18" ry="18"/>
</g>
<!-- u2_1 -->
<g id="node12" class="node"><title>u2_1</title>
<ellipse fill="none" stroke="black" cx="313.076" cy="-196" rx="18" ry="18"/>
</g>
<!-- u2_2_d -->
<g id="node16" class="node"><title>u2_2_d</title>
<ellipse fill="none" stroke="black" cx="386.076" cy="-142" rx="18" ry="18"/>
</g>
<!-- u2_2&#45;&gt;u2_2_d -->
<!-- u2_3 -->
<g id="node14" class="node"><title>u2_3</title>
<ellipse fill="none" stroke="black" cx="313.076" cy="-88" rx="18" ry="18"/>
</g>
<!-- u2_1_d -->
<g id="node15" class="node"><title>u2_1_d</title>
<ellipse fill="none" stroke="black" cx="386.076" cy="-196" rx="18" ry="18"/>
</g>
<!-- u3_2 -->
<g id="node19" class="node"><title>u3_2</title>
<ellipse fill="none" stroke="black" cx="487.614" cy="-142" rx="18" ry="18"/>
</g>
<!-- u2_2_d&#45;&gt;u3_2 -->
<g id="edge3" class="edge"><title>u2_2_d&#45;&gt;u3_2</title>
<path fill="none" stroke="black" d="M411.98,-142C426.37,-142 444.493,-142 459.277,-142"/>
<polygon fill="black" stroke="black" points="451.614,-145.5 461.614,-142 451.614,-138.5 451.614,-145.5"/>
<text text-anchor="middle" x="436.845" y="-144.8" font-family="Times,serif" font-size="14.00">W(3)</text>
</g>
<!-- u2_3_d -->
<g id="node17" class="node"><title>u2_3_d</title>
<ellipse fill="none" stroke="black" cx="386.076" cy="-88" rx="18" ry="18"/>
</g>
<!-- u3_1 -->
<g id="node18" class="node"><title>u3_1</title>
<ellipse fill="none" stroke="black" cx="487.614" cy="-196" rx="18" ry="18"/>
</g>
<!-- u3_3 -->
<g id="node20" class="node"><title>u3_3</title>
<ellipse fill="none" stroke="black" cx="487.614" cy="-88" rx="18" ry="18"/>
</g>
</g>
</svg>
