<?xml version="1.0" encoding="UTF-8" standalone="no"?>
<!DOCTYPE svg PUBLIC "-//W3C//DTD SVG 1.1//EN"
 "http://www.w3.org/Graphics/SVG/1.1/DTD/svg11.dtd">
<!-- Generated by graphviz version 2.38.0 (20140413.2041)
 -->
<!-- Title: G Pages: 1 -->
<svg width="885pt" height="321pt"
 viewBox="0.00 0.00 885.14 321.00" xmlns="http://www.w3.org/2000/svg" xmlns:xlink="http://www.w3.org/1999/xlink">
<g id="graph0" class="graph" transform="scale(1 1) rotate(0) translate(4 317)">
<title>G</title>
<polygon fill="white" stroke="none" points="-4,4 -4,-317 881.14,-317 881.14,4 -4,4"/>
<g id="clust1" class="cluster"><title>cluster_0</title>
<polygon fill="none" stroke="black" points="83,-8 83,-305 141,-305 141,-8 83,-8"/>
<text text-anchor="middle" x="112" y="-289.8" font-family="Times,serif" font-size="14.00">入力層</text>
</g>
<g id="clust2" class="cluster"><title>cluster_1</title>
<polygon fill="none" stroke="black" points="255.445,-62 255.445,-253 307.445,-253 307.445,-62 255.445,-62"/>
<text text-anchor="middle" x="281.445" y="-237.8" font-family="Times,serif" font-size="14.00">第1層</text>
</g>
<g id="clust3" class="cluster"><title>cluster_2</title>
<polygon fill="none" stroke="black" points="421.891,-62 421.891,-253 473.891,-253 473.891,-62 421.891,-62"/>
<text text-anchor="middle" x="447.891" y="-237.8" font-family="Times,serif" font-size="14.00">第2層</text>
</g>
<g id="clust4" class="cluster"><title>cluster_3</title>
<polygon fill="none" stroke="black" points="588.336,-62 588.336,-253 640.336,-253 640.336,-62 588.336,-62"/>
<text text-anchor="middle" x="614.336" y="-237.8" font-family="Times,serif" font-size="14.00">第3層</text>
</g>
<g id="clust5" class="cluster"><title>cluster_4</title>
<polygon fill="none" stroke="black" points="736.14,-62 736.14,-251 794.14,-251 794.14,-62 736.14,-62"/>
<text text-anchor="middle" x="765.14" y="-235.8" font-family="Times,serif" font-size="14.00">出力層</text>
</g>
<!-- x1 -->
<g id="node1" class="node"><title>x1</title>
<ellipse fill="none" stroke="black" cx="112" cy="-250" rx="18" ry="18"/>
</g>
<!-- x2 -->
<g id="node2" class="node"><title>x2</title>
<ellipse fill="none" stroke="black" cx="112" cy="-196" rx="18" ry="18"/>
</g>
<!-- x3 -->
<g id="node3" class="node"><title>x3</title>
<ellipse fill="none" stroke="black" cx="112" cy="-142" rx="18" ry="18"/>
</g>
<!-- u1_2 -->
<g id="node7" class="node"><title>u1_2</title>
<ellipse fill="none" stroke="black" cx="281.445" cy="-142" rx="18" ry="18"/>
</g>
<!-- x3&#45;&gt;u1_2 -->
<g id="edge2" class="edge"><title>x3&#45;&gt;u1_2</title>
<path fill="none" stroke="black" d="M140.781,-142C171.763,-142 221.587,-142 252.596,-142"/>
<polygon fill="black" stroke="black" points="245.445,-145.5 255.445,-142 245.445,-138.5 245.445,-145.5"/>
<text text-anchor="middle" x="198.223" y="-144.8" font-family="Times,serif" font-size="14.00">W(1) pre&#45;trained</text>
</g>
<!-- x4 -->
<g id="node4" class="node"><title>x4</title>
<ellipse fill="none" stroke="black" cx="112" cy="-88" rx="18" ry="18"/>
</g>
<!-- x5 -->
<g id="node5" class="node"><title>x5</title>
<ellipse fill="none" stroke="black" cx="112" cy="-34" rx="18" ry="18"/>
</g>
<!-- u1_1 -->
<g id="node6" class="node"><title>u1_1</title>
<ellipse fill="none" stroke="black" cx="281.445" cy="-196" rx="18" ry="18"/>
</g>
<!-- u2_2 -->
<g id="node10" class="node"><title>u2_2</title>
<ellipse fill="none" stroke="black" cx="447.891" cy="-142" rx="18" ry="18"/>
</g>
<!-- u1_2&#45;&gt;u2_2 -->
<g id="edge3" class="edge"><title>u1_2&#45;&gt;u2_2</title>
<path fill="none" stroke="black" d="M306.931,-142C337.117,-142 388.264,-142 419.66,-142"/>
<polygon fill="black" stroke="black" points="411.891,-145.5 421.891,-142 411.89,-138.5 411.891,-145.5"/>
<text text-anchor="middle" x="364.668" y="-144.8" font-family="Times,serif" font-size="14.00">W(2) pre&#45;trained</text>
</g>
<!-- u1_3 -->
<g id="node8" class="node"><title>u1_3</title>
<ellipse fill="none" stroke="black" cx="281.445" cy="-88" rx="18" ry="18"/>
</g>
<!-- u2_1 -->
<g id="node9" class="node"><title>u2_1</title>
<ellipse fill="none" stroke="black" cx="447.891" cy="-196" rx="18" ry="18"/>
</g>
<!-- u3_2 -->
<g id="node13" class="node"><title>u3_2</title>
<ellipse fill="none" stroke="black" cx="614.336" cy="-142" rx="18" ry="18"/>
</g>
<!-- u2_2&#45;&gt;u3_2 -->
<g id="edge4" class="edge"><title>u2_2&#45;&gt;u3_2</title>
<path fill="none" stroke="black" d="M473.761,-142C503.995,-142 554.842,-142 586.105,-142"/>
<polygon fill="black" stroke="black" points="578.336,-145.5 588.336,-142 578.336,-138.5 578.336,-145.5"/>
<text text-anchor="middle" x="531.113" y="-144.8" font-family="Times,serif" font-size="14.00">W(3) pre&#45;trained</text>
</g>
<!-- u2_3 -->
<g id="node11" class="node"><title>u2_3</title>
<ellipse fill="none" stroke="black" cx="447.891" cy="-88" rx="18" ry="18"/>
</g>
<!-- u3_1 -->
<g id="node12" class="node"><title>u3_1</title>
<ellipse fill="none" stroke="black" cx="614.336" cy="-196" rx="18" ry="18"/>
</g>
<!-- y2 -->
<g id="node16" class="node"><title>y2</title>
<ellipse fill="none" stroke="black" cx="765.14" cy="-142" rx="18" ry="18"/>
</g>
<!-- u3_2&#45;&gt;y2 -->
<g id="edge5" class="edge"><title>u3_2&#45;&gt;y2</title>
<path fill="none" stroke="black" d="M639.867,-142C663.347,-142 699.107,-142 726.248,-142"/>
<polygon fill="black" stroke="black" points="726.441,-145.5 736.441,-142 726.441,-138.5 726.441,-145.5"/>
<text text-anchor="middle" x="688.238" y="-144.8" font-family="Times,serif" font-size="14.00">W(4) random</text>
</g>
<!-- u3_3 -->
<g id="node14" class="node"><title>u3_3</title>
<ellipse fill="none" stroke="black" cx="614.336" cy="-88" rx="18" ry="18"/>
</g>
<!-- y1 -->
<g id="node15" class="node"><title>y1</title>
<ellipse fill="none" stroke="black" cx="765.14" cy="-196" rx="18" ry="18"/>
</g>
<!-- o -->
<g id="node19" class="node"><title>o</title>
<text text-anchor="middle" x="850.14" y="-137.8" font-family="Times,serif" font-size="14.00">output</text>
</g>
<!-- y2&#45;&gt;o -->
<g id="edge6" class="edge"><title>y2&#45;&gt;o</title>
<path fill="none" stroke="black" d="M793.806,-142C799.974,-142 806.603,-142 813.055,-142"/>
<polygon fill="black" stroke="black" points="813.129,-145.5 823.129,-142 813.129,-138.5 813.129,-145.5"/>
</g>
<!-- y3 -->
<g id="node17" class="node"><title>y3</title>
<ellipse fill="none" stroke="black" cx="765.14" cy="-88" rx="18" ry="18"/>
</g>
<!-- i -->
<g id="node18" class="node"><title>i</title>
<text text-anchor="middle" x="27" y="-137.8" font-family="Times,serif" font-size="14.00">input</text>
</g>
<!-- i&#45;&gt;x3 -->
<g id="edge1" class="edge"><title>i&#45;&gt;x3</title>
<path fill="none" stroke="black" d="M54.2617,-142C60.1805,-142 66.5796,-142 72.8744,-142"/>
<polygon fill="black" stroke="black" points="73.2666,-145.5 83.2666,-142 73.2666,-138.5 73.2666,-145.5"/>
</g>
</g>
</svg>
